<?xml version="1.0" encoding="utf-8"?>
<!-- Generator: Adobe Illustrator 23.0.3, SVG Export Plug-In . SVG Version: 6.00 Build 0)  -->
<svg version="1.1" id="Layer_1" xmlns="http://www.w3.org/2000/svg" xmlns:xlink="http://www.w3.org/1999/xlink" x="0px" y="0px"
	 viewBox="0 0 154 55.4" style="enable-background:new 0 0 154 55.4;" xml:space="preserve">
<style type="text/css">
	.st0{fill:#0877D0;}
</style>
<g id="Group_700" transform="translate(-279.521 -806.695)">
	<path id="Path_363" class="st0" d="M318.9,812.8c0,0.5-0.2,0.9-0.4,1.4c-0.3,0.6-0.6,1.2-1,1.7c-0.5,0.6-1,1.1-1.6,1.5
		c-0.6,0.4-1.3,0.6-2.1,0.6c-0.2,0-0.4,0-0.7,0c-0.3,0-0.5-0.1-0.8-0.2c-0.3-0.1-0.5-0.3-0.7-0.5c-0.2-0.2-0.3-0.5-0.3-0.8
		c0-0.2,0.1-0.5,0.2-0.7c0.2-0.3,0.3-0.6,0.5-1s0.4-0.7,0.5-1c0.1-0.3,0.2-0.5,0.2-0.8c0-0.6-0.4-1.1-1.3-1.3
		c-1.4-0.3-2.9-0.5-4.4-0.4c-2.1,0.1-3.9,0.2-5.6,0.4c-1.7,0.2-3.2,0.4-4.6,0.7c-1.4,0.3-2.7,0.6-3.9,0.9c-1.2,0.3-2.4,0.7-3.6,1.1
		c-1.2,0.4-2.4,0.8-3.6,1.3c-1.2,0.4-2.5,0.9-3.9,1.3c-0.1,0-0.2,0.1-0.4,0.1c-0.1,0-0.2,0.1-0.3,0.1c-0.3,0-0.5-0.1-0.8-0.2
		c-0.2-0.1-0.4-0.3-0.6-0.5c-0.2-0.2-0.3-0.5-0.4-0.7c-0.1-0.3-0.2-0.6-0.1-0.8c0-0.5,0.4-1,1.1-1.6c1-0.7,2-1.3,3.1-1.8
		c1.5-0.7,3.1-1.3,4.7-1.8c1.8-0.6,3.7-1.1,5.8-1.5c2.1-0.4,4.2-0.8,6.5-1.1c2.2-0.3,4.5-0.4,6.8-0.4c1.7,0,3.4,0.1,5,0.5
		c1.2,0.2,2.4,0.7,3.5,1.3c0.8,0.5,1.6,1.1,2.1,1.9C318.6,811.1,318.9,812,318.9,812.8z M287.1,844.7c-0.3,0.5-0.6,1-1,1.4
		c-0.4,0.4-0.8,0.7-1.2,1c-0.4,0.3-0.9,0.5-1.3,0.6c-0.4,0.1-0.8,0.2-1.3,0.2c-0.5,0-1-0.1-1.5-0.4c-0.4-0.3-0.6-0.8-0.6-1.3
		c0-0.2,0-0.4,0.1-0.7c0.1-0.3,0.2-0.5,0.3-0.8c1.4-2.8,2.8-5.6,4.1-8.2s2.7-5.1,4-7.4c1.3-2.3,2.5-4.4,3.6-6.2
		c1.1-1.9,2.2-3.5,3.1-4.8c0.7-1.1,1.5-2.1,2.4-3.1c0.7-0.7,1.1-1.1,1.5-1.1c0.5,0,1.1,0.2,1.4,0.5c0.3,0.4,0.5,0.8,0.5,1.3
		c0,0.4-0.1,0.8-0.3,1.2c-0.5,0.9-1,2-1.5,3.1c-0.6,1.2-1.2,2.4-1.8,3.7c-0.6,1.3-1.3,2.7-2,4.1c-0.7,1.4-1.4,2.8-2,4.2
		c-0.7,1.4-1.3,2.7-2,4c-0.6,1.3-1.2,2.5-1.8,3.6c-0.6,1.1-1.1,2.1-1.5,3C287.7,843.5,287.3,844.2,287.1,844.7z"/>
	<path id="Path_364" class="st0" d="M331.1,838.1c-0.3,0.3-0.8,0.7-1.3,1.3c-0.5,0.5-1.2,1.1-1.9,1.8c-0.7,0.6-1.4,1.3-2.2,1.9
		c-0.8,0.6-1.6,1.2-2.4,1.8c-0.8,0.5-1.6,0.9-2.4,1.3c-0.7,0.3-1.5,0.5-2.3,0.5c-0.6,0-1.1-0.1-1.6-0.4c-0.4-0.3-0.8-0.6-1.1-1.1
		c-0.3-0.5-0.5-1-0.7-1.5c-0.1-0.6-0.2-1.1-0.2-1.7c0-0.4,0-0.8,0.1-1.1c0.1-0.4,0.1-0.7,0.3-1c-0.6,0.8-1.2,1.5-1.9,2.4
		c-0.7,0.8-1.5,1.5-2.3,2.2c-0.8,0.6-1.7,1.2-2.6,1.6c-0.9,0.4-1.8,0.6-2.7,0.6c-0.6,0-1.1-0.1-1.6-0.3c-0.6-0.2-1.3-0.5-1.8-0.9
		c-0.6-0.5-1.1-1-1.4-1.7c-0.4-0.8-0.6-1.7-0.6-2.5c0-0.9,0.1-1.8,0.3-2.7c0.2-1.1,0.6-2.2,1-3.2c0.5-1.2,1.1-2.3,1.8-3.3
		c0.7-1.1,1.6-2.1,2.5-2.9c1-0.9,2.1-1.6,3.3-2.1c1.3-0.5,2.8-0.8,4.2-0.8c0.7,0,1.4,0.1,2.1,0.3c0.5,0.2,1,0.4,1.5,0.7
		c0.4,0.3,0.9,0.6,1.3,1c0.3-0.2,0.6-0.3,1-0.5c0.3-0.1,0.6-0.2,0.9-0.3c0.2-0.1,0.5-0.1,0.8-0.2c0.6,0,1.2,0.2,1.7,0.6
		c0.4,0.3,0.6,0.8,0.7,1.3c0,0.1,0,0.2,0,0.3c-0.1,0.3-0.2,0.8-0.4,1.3s-0.4,1.1-0.6,1.8s-0.5,1.3-0.7,2s-0.5,1.4-0.7,2.1
		s-0.4,1.3-0.5,1.9c-0.1,0.5-0.2,1-0.2,1.5c0,0.5,0.1,0.9,0.3,1.3c0.2,0.3,0.5,0.6,0.9,0.5c0.3,0,0.7-0.1,1-0.3
		c0.4-0.2,0.8-0.4,1.2-0.7c0.4-0.3,0.9-0.6,1.3-1c0.5-0.4,0.9-0.7,1.3-1.1c1-0.9,2.1-1.9,3.2-3.1c0.2-0.2,0.5-0.3,0.8-0.4
		c0.4,0,0.7,0.2,0.9,0.5c0.2,0.3,0.4,0.8,0.4,1.2C331.6,837.3,331.4,837.8,331.1,838.1z M312.2,831.1c-0.9,0-1.7,0.2-2.5,0.7
		c-0.8,0.4-1.5,1-2.1,1.7c-0.6,0.7-1.1,1.5-1.5,2.4c-0.4,0.8-0.5,1.7-0.5,2.7c0,0.4,0,0.8,0.1,1.1c0,0.4,0.1,0.7,0.3,1.1
		c0.2,0.3,0.4,0.6,0.7,0.8c0.4,0.2,0.8,0.3,1.2,0.3c0.5,0,1-0.2,1.4-0.5c0.6-0.4,1.2-0.9,1.7-1.4c0.6-0.6,1.2-1.2,1.7-1.8
		c0.5-0.7,1-1.3,1.5-1.9c0.4-0.6,0.7-1.1,1.1-1.7c0.2-0.3,0.4-0.7,0.4-1.1c0-0.3-0.1-0.7-0.4-0.9c-0.2-0.3-0.5-0.5-0.9-0.7
		c-0.3-0.2-0.7-0.4-1.1-0.5C312.9,831.2,312.6,831.1,312.2,831.1z"/>
	<path id="Path_365" class="st0" d="M329.5,832.7c0.6-1.3,1-2.3,1.4-3c0.3-0.6,0.6-1.2,1-1.8c0.2-0.4,0.5-0.7,0.9-0.9
		c1-0.4,2.1-0.2,2.9,0.4c0.5,0.4,0.8,1,0.7,1.7c0,0.2,0,0.3-0.1,0.5c0,0.2-0.1,0.3-0.2,0.5l-4.6,10.9c-0.1,0.2-0.1,0.3-0.1,0.5
		c0,0.1,0,0.3,0,0.4c0,0.2,0,0.4,0.1,0.5c0.1,0.1,0.2,0.2,0.3,0.2c0.2,0,0.4,0,0.6-0.1c0.3-0.1,0.5-0.3,0.7-0.5
		c0.3-0.2,0.6-0.5,1-0.9s0.9-0.9,1.5-1.5c0.6-0.7,1.2-1.4,1.7-2.2c0.6-0.8,1.2-1.7,1.8-2.7c0.6-0.9,1.1-1.9,1.6-2.8
		c0.5-1,0.9-1.8,1.3-2.7c0.2-0.5,0.5-0.9,0.7-1.3c0.2-0.3,0.4-0.5,0.6-0.8c0.2-0.2,0.4-0.3,0.6-0.4c0.2-0.1,0.5-0.1,0.8-0.1
		c1.1,0,1.7,0.5,1.7,1.4c0,0.2-0.1,0.3-0.1,0.5c0,0.2-0.1,0.4-0.1,0.6l-4.2,12.5c0,0.3,0.2,0.6,0.5,0.7c0.1,0,0.1,0,0.2,0
		c0.5-0.1,0.9-0.3,1.3-0.5c0.6-0.3,1.1-0.7,1.6-1.1c0.6-0.5,1.1-1,1.5-1.6c0.4-0.6,0.8-1.2,1-1.9c0.4-1.2,0.8-2.4,1.2-3.6
		c0.4-1.1,0.8-2.2,1.3-3.3c0.4-0.9,0.9-1.7,1.5-2.5c0.4-0.6,1.1-1,1.8-1c0.5,0,1,0.2,1.4,0.6c0.4,0.4,0.6,0.9,0.6,1.5
		c0,0.8-0.1,1.5-0.3,2.3c-0.2,0.8-0.4,1.7-0.7,2.5c-0.3,0.8-0.7,1.6-1.1,2.4c-0.4,0.7-0.8,1.4-1.3,2.1c0.1,0.4,0.4,0.6,0.8,0.6
		c0.7,0,1.3-0.1,2-0.2c0.6-0.1,1.2-0.3,1.8-0.5c0.6-0.2,1.2-0.5,1.8-0.7c0.6-0.3,1.2-0.6,1.8-1c0.3-0.2,0.6-0.3,0.9-0.3
		c0.8,0,1.4,0.7,1.4,1.5c0,0,0,0,0,0c0,0.5-0.2,0.9-0.5,1.2c-0.4,0.5-0.9,0.9-1.4,1.2c-0.6,0.4-1.3,0.8-2,1.1
		c-0.7,0.3-1.5,0.6-2.2,0.9c-0.7,0.3-1.4,0.5-2.2,0.6c-0.6,0.1-1.2,0.2-1.8,0.2c-1.1,0-2.2-0.3-3.1-0.9c-1.1,1.4-2.4,2.6-4,3.5
		c-1.3,0.8-2.7,1.2-4.2,1.2c-1,0.1-2.1-0.3-2.8-1c-0.6-0.9-0.9-1.9-0.9-3c-1.1,1.2-2.4,2.2-3.8,3c-1.1,0.6-2.4,1-3.7,1
		c-0.7,0-1.4-0.1-2-0.3c-0.5-0.2-0.9-0.4-1.3-0.8c-0.3-0.3-0.6-0.8-0.7-1.2c-0.1-0.5-0.2-1-0.2-1.5c0-1,0.1-1.9,0.4-2.8
		c0.2-1,0.6-1.9,0.9-2.9c0.4-0.9,0.7-1.8,1.1-2.6C329,833.8,329.3,833.1,329.5,832.7z"/>
	<path id="Path_366" class="st0" d="M368,853.2c-0.2,0.4-0.4,0.8-0.6,1.3c-0.2,0.4-0.3,0.8-0.4,1.3c0,0.4,0.2,0.6,0.6,0.6
		c0.4-0.1,0.8-0.3,1-0.6c0.4-0.5,0.8-1,1.2-1.6c0.4-0.7,0.9-1.4,1.3-2.3c0.5-0.9,0.9-1.8,1.4-2.7c0.5-1,0.9-1.9,1.4-2.9
		s0.9-1.9,1.2-2.7c0.4-0.8,0.7-1.6,1-2.3s0.5-1.2,0.7-1.5c0.4-0.5,0.9-1,1.5-1.4c0.6-0.4,1.2-0.9,1.9-1.3s1.4-0.9,2.2-1.3
		c0.8-0.4,1.5-0.9,2.3-1.5c0.2-0.1,0.4-0.2,0.7-0.2c0.4,0,0.7,0.2,0.8,0.5c0.2,0.4,0.3,0.9,0.3,1.3c0,0.4,0,0.7-0.1,1.1
		c-0.1,0.4-0.2,0.7-0.4,1.1c-0.2,0.4-0.4,0.7-0.7,1c-0.3,0.3-0.6,0.5-0.9,0.7l-3.8,2.3c-0.5,0.4-0.9,0.9-1.2,1.5
		c-0.4,0.7-0.8,1.6-1.2,2.6c-0.4,1-0.9,2.1-1.3,3.2c-0.5,1.2-1,2.3-1.6,3.5c-0.6,1.2-1.2,2.3-1.9,3.4c-0.6,1-1.4,2-2.2,2.9
		c-0.8,0.8-1.7,1.5-2.7,2c-1,0.5-2.2,0.8-3.3,0.8c-0.5,0-1-0.1-1.5-0.2c-0.4-0.2-0.9-0.4-1.2-0.7c-0.7-0.6-1.1-1.5-1.1-2.5
		c0-0.3,0-0.6,0-0.9c0-0.3,0.1-0.5,0.2-0.8c0.1-0.4,0.3-0.8,0.5-1.1c0.2-0.4,0.5-1,0.9-1.8l4.6-9.1c-0.5,0.5-1.1,0.9-1.8,1.2
		c-0.6,0.3-1.3,0.5-2,0.4c-0.8,0-1.6-0.2-2.3-0.5c-0.6-0.4-1.2-0.8-1.6-1.4c-0.4-0.6-0.7-1.3-0.9-2.1c-0.2-0.8-0.3-1.6-0.3-2.5
		c0-1.5,0.2-2.9,0.7-4.3c0.4-1.2,1.1-2.4,1.8-3.5c0.7-1,1.6-1.9,2.6-2.7c0.9-0.7,1.8-1.4,2.8-1.9c0.9-0.5,1.8-0.9,2.7-1.1
		c0.7-0.2,1.4-0.4,2.1-0.4c0.7,0,1.4,0.1,2,0.4c0.5,0.2,1,0.5,1.4,0.8c0.4,0.3,0.8,0.8,1.1,1.2c0.3-0.3,0.6-0.5,0.8-0.7
		c0.2-0.2,0.5-0.4,0.7-0.5c0.2-0.1,0.4-0.2,0.6-0.2c1-0.1,1.8,0.7,1.9,1.6c0,0.1,0,0.1,0,0.2c0,0.5-0.1,0.9-0.4,1.3L368,853.2z
		 M373.9,832.3c-0.2-0.4-0.4-0.7-0.6-1c-0.3-0.3-0.6-0.5-0.9-0.7c-0.4-0.2-0.9-0.3-1.4-0.3c-1,0-2.1,0.3-2.9,0.9
		c-0.9,0.6-1.7,1.3-2.4,2.2c-0.7,0.9-1.2,1.9-1.6,3c-0.4,1-0.6,2.1-0.6,3.2c-0.1,0.6,0.1,1.2,0.4,1.7c0.3,0.3,0.7,0.5,1.1,0.5
		c0.7,0,1.3-0.2,1.9-0.6c0.8-0.5,1.5-1.1,2.1-1.7c0.9-0.9,1.6-1.9,2.3-3C372.1,835.4,373,833.9,373.9,832.3L373.9,832.3z"/>
	<path id="Path_367" class="st0" d="M386,828.6c0.3-0.5,0.6-0.8,1.1-1.1c0.4-0.2,0.8-0.3,1.2-0.3c0.7,0,1.3,0.2,1.8,0.7
		c0.5,0.4,0.8,1.1,0.7,1.7c0,0.2,0,0.3-0.1,0.5c0,0.2-0.1,0.3-0.2,0.5c-0.3,0.5-0.5,0.9-0.6,1.2c-0.2,0.3-0.3,0.6-0.4,0.9
		s-0.3,0.6-0.4,0.8s-0.3,0.6-0.5,1c-0.2,0.5-0.5,0.9-0.7,1.5c-0.3,0.5-0.5,1.1-0.8,1.6c-0.2,0.5-0.4,1.1-0.6,1.7
		c-0.2,0.5-0.2,1-0.3,1.5c-0.1,0.4,0.1,0.7,0.4,1c0.3,0.2,0.7,0.3,1,0.2c0.5,0,1.1-0.1,1.6-0.3c0.6-0.2,1.1-0.5,1.7-0.8
		c0.6-0.4,1.1-0.8,1.7-1.2c0.5-0.4,1.1-0.9,1.5-1.3c0.5-0.5,0.9-0.9,1.3-1.3c0.4-0.4,0.7-0.8,1-1.1c0.3-0.3,0.7-0.5,1.1-0.5
		c0.3,0,0.6,0.2,0.8,0.4c0.2,0.3,0.3,0.7,0.3,1.1c0,0.5-0.1,0.9-0.3,1.3c-0.2,0.5-0.6,1-1,1.3c-0.9,0.9-1.9,1.8-2.8,2.7
		c-0.9,0.8-1.9,1.6-3,2.3c-1,0.6-2,1.2-3,1.6c-1,0.4-2,0.6-3.1,0.6c-1.3,0.1-2.5-0.3-3.5-1.1c-0.9-0.9-1.4-2.2-1.3-3.5
		c0-0.8,0.1-1.7,0.4-2.5c0.2-0.8,0.5-1.6,0.8-2.3c0.3-0.8,0.7-1.5,1-2.2c0.4-0.7,0.7-1.4,0.9-2c0.1-0.2,0.2-0.6,0.5-1.1
		c0.2-0.5,0.5-1,0.7-1.5C385.4,829.9,385.7,829.2,386,828.6z M389,822.4c0-0.4,0.1-0.9,0.2-1.3c0.2-0.4,0.4-0.9,0.7-1.2
		c0.3-0.4,0.7-0.7,1.2-0.9c0.5-0.2,1.1-0.4,1.6-0.4c0.8-0.1,1.6,0.1,2.2,0.6c0.4,0.4,0.6,1,0.6,1.5c0,0.4-0.1,0.8-0.2,1.1
		c-0.1,0.4-0.3,0.8-0.6,1.2c-0.3,0.4-0.6,0.7-1.1,0.9c-0.5,0.2-1,0.4-1.6,0.4c-0.8,0.1-1.7-0.1-2.4-0.5
		C389.3,823.5,389,823,389,822.4z"/>
	<path id="Path_368" class="st0" d="M407.7,839.5c0-0.4,0-0.8-0.1-1.3c-0.1-0.4-0.3-0.8-0.5-1.1c-0.3-0.3-0.7-0.6-1.2-0.7
		c-0.7-0.2-1.4-0.3-2-0.3c-0.3,0-0.6,0-0.9,0.1c-0.3,0-0.7,0.1-1,0.1c-0.4,0-0.8-0.1-1.1-0.5c-0.2-0.3-0.4-0.6-0.4-1
		c0-0.5,0.3-1,0.7-1.3c0.6-0.4,1.3-0.7,2-0.8c1.1-0.2,2.2-0.5,3.2-1c0.8-0.4,1.6-0.9,2.2-1.5c0.5-0.4,1-0.9,1.3-1.5
		c0.2-0.3,0.4-0.7,0.4-1.1c0-0.5-0.2-1-0.6-1.3c-0.4-0.3-0.9-0.5-1.3-0.5c-0.8,0-1.6,0.1-2.4,0.2c-0.7,0.1-1.4,0.3-2,0.5
		c-0.6,0.2-1.2,0.3-1.7,0.5c-0.5,0.1-1,0.2-1.5,0.2c-0.5,0-1-0.2-1.4-0.5c-0.4-0.3-0.6-0.8-0.6-1.2c0-0.5,0.2-0.9,0.5-1.3
		c0.6-0.4,1.2-0.8,1.8-1.1c0.7-0.4,1.5-0.7,2.3-0.9c0.8-0.3,1.7-0.5,2.5-0.6c0.9-0.2,1.7-0.2,2.6-0.2c0.8,0,1.6,0.1,2.4,0.3
		c0.7,0.2,1.4,0.5,2,0.9c0.6,0.4,1.1,1,1.4,1.7c0.4,0.8,0.5,1.7,0.5,2.6c0,1.5-0.7,3-1.8,4c-1.4,1.4-3.2,2.5-5.1,3
		c0.8,0.2,1.6,0.5,2.3,0.9c0.5,0.3,1,0.8,1.4,1.3c0.3,0.4,0.6,0.9,0.7,1.5c0.1,0.5,0.2,1,0.2,1.5c0,1.3-0.2,2.7-0.7,3.9
		c-0.4,1.1-1,2.2-1.8,3.2c-0.8,0.9-1.6,1.8-2.6,2.5c-1,0.7-2.1,1.4-3.3,1.9c-1.2,0.5-2.4,1-3.6,1.4c-1.3,0.4-2.5,0.7-3.7,1
		c-0.3,0.1-0.5,0.1-0.8,0.1c-0.2,0-0.4,0.1-0.6,0.1c-0.5,0-1.1-0.1-1.5-0.4c-0.3-0.3-0.5-0.6-0.5-1c0-0.5,0.2-0.9,0.5-1.3
		c0.4-0.5,1-0.8,1.6-0.9c0.8-0.2,1.7-0.4,2.5-0.7c0.9-0.3,1.8-0.7,2.6-1.1c0.9-0.4,1.7-0.9,2.5-1.5c0.8-0.5,1.5-1.2,2.1-1.9
		c0.6-0.7,1.1-1.4,1.5-2.2C407.4,841.2,407.7,840.4,407.7,839.5z"/>
	<path id="Path_369" class="st0" d="M420.8,828.6c0.3-0.5,0.6-0.8,1.1-1.1c0.4-0.2,0.8-0.3,1.2-0.3c0.7,0,1.3,0.2,1.8,0.7
		c0.5,0.4,0.8,1.1,0.7,1.7c0,0.2,0,0.3-0.1,0.5c0,0.2-0.1,0.3-0.2,0.5c-0.3,0.5-0.5,0.9-0.6,1.2c-0.2,0.3-0.3,0.6-0.4,0.9
		c-0.1,0.3-0.3,0.6-0.4,0.8s-0.3,0.6-0.5,1c-0.2,0.5-0.5,0.9-0.7,1.5c-0.3,0.5-0.5,1.1-0.8,1.6c-0.2,0.5-0.4,1.1-0.6,1.7
		c-0.2,0.5-0.2,1-0.3,1.5c-0.1,0.4,0.1,0.7,0.4,1c0.3,0.2,0.7,0.3,1,0.2c0.5,0,1.1-0.1,1.6-0.3c0.6-0.2,1.1-0.5,1.7-0.8
		c0.6-0.4,1.1-0.8,1.7-1.2c0.5-0.4,1.1-0.9,1.5-1.3c0.5-0.5,0.9-0.9,1.3-1.3c0.4-0.4,0.7-0.8,1-1.1c0.3-0.3,0.7-0.5,1.1-0.5
		c0.3,0,0.6,0.2,0.8,0.4c0.2,0.3,0.3,0.7,0.3,1.1c0,0.5-0.1,0.9-0.3,1.3c-0.2,0.5-0.6,1-1,1.3c-0.9,0.9-1.9,1.8-2.8,2.7
		c-0.9,0.8-1.9,1.6-3,2.3c-1,0.6-2,1.2-3,1.6c-1,0.4-2,0.6-3.1,0.6c-1.3,0.1-2.5-0.3-3.5-1.1c-0.9-0.9-1.4-2.2-1.3-3.5
		c0-0.8,0.1-1.7,0.4-2.5c0.2-0.8,0.5-1.6,0.8-2.3c0.3-0.8,0.7-1.5,1-2.2c0.4-0.7,0.7-1.4,0.9-2c0.1-0.2,0.2-0.6,0.5-1.1
		c0.2-0.5,0.5-1,0.7-1.5C420.2,829.9,420.5,829.2,420.8,828.6z M423.8,822.4c0-0.4,0.1-0.9,0.2-1.3c0.2-0.4,0.4-0.9,0.7-1.2
		c0.3-0.4,0.7-0.7,1.2-0.9c0.5-0.2,1.1-0.4,1.6-0.4c0.8-0.1,1.6,0.1,2.2,0.6c0.4,0.4,0.6,1,0.6,1.5c0,0.4-0.1,0.8-0.2,1.1
		c-0.1,0.4-0.3,0.8-0.6,1.2c-0.3,0.4-0.6,0.7-1.1,0.9c-0.5,0.2-1,0.4-1.6,0.4c-0.8,0.1-1.7-0.1-2.4-0.5
		C424.1,823.5,423.9,823,423.8,822.4L423.8,822.4z"/>
</g>
</svg>
